<svg id="Layer_1" data-name="Layer 1" xmlns="http://www.w3.org/2000/svg" viewBox="0 0 799.05 599.5"><defs><style>.cls-1{fill:#fff;}</style></defs><title>signin</title><path d="M831.84,671.16c128,3.45,242.72,60.41,322.49,149.34h.63C1075,731.46,960.11,674.46,831.84,671.16Zm0,0c128,3.45,242.72,60.41,322.49,149.34h.63C1075,731.46,960.11,674.46,831.84,671.16Z" transform="translate(-420 -271)"/><path class="cls-1" d="M831.84,671.16c128.27,3.3,243.2,60.3,323.12,149.34-79.92-89-194.85-146-323.12-149.34Zm0,0c128,3.45,242.72,60.41,322.49,149.34h0c-79.77-88.93-194.46-145.89-322.49-149.34Z" transform="translate(-420 -271)"/><path d="M820,570.5c-82.43,0-149.5-67.07-149.5-149.5S737.57,271.5,820,271.5,969.5,338.57,969.5,421,902.43,570.5,820,570.5Zm0-250A100.5,100.5,0,1,0,920.5,421,100.61,100.61,0,0,0,820,320.5Z" transform="translate(-420 -271)"/><path class="cls-1" d="M820,272a149,149,0,1,1-105.36,43.64A148,148,0,0,1,820,272m0,250A101,101,0,1,0,719,421,101.12,101.12,0,0,0,820,522m0-251A150,150,0,1,0,970,421,150,150,0,0,0,820,271Zm0,250A100,100,0,1,1,920,421,100,100,0,0,1,820,521Z" transform="translate(-420 -271)"/><path d="M831.84,671.16c128,3.45,242.72,60.41,322.49,149.34h.63C1075,731.46,960.11,674.46,831.84,671.16Z" transform="translate(-420 -271)"/><path class="cls-1" d="M831.84,671.16c128,3.45,242.72,60.41,322.49,149.34h.63c-79.92-89-194.85-146-323.12-149.34Z" transform="translate(-420 -271)"/><path d="M1155,820.5h-.63c-79.77-88.93-194.46-145.89-322.49-149.34C960.11,674.46,1075,731.46,1155,820.5Z" transform="translate(-420 -271)"/><path class="cls-1" d="M831.84,671.16c128,3.45,242.72,60.41,322.49,149.34h.63c-79.92-89-194.85-146-323.12-149.34Z" transform="translate(-420 -271)"/><path d="M831.84,671.16c128,3.45,242.72,60.41,322.49,149.34h.63C1075,731.46,960.11,674.46,831.84,671.16Z" transform="translate(-420 -271)"/><path class="cls-1" d="M831.84,671.16c128,3.45,242.72,60.41,322.49,149.34h.63c-79.92-89-194.85-146-323.12-149.34Z" transform="translate(-420 -271)"/><path d="M445.5,870A24.53,24.53,0,0,1,421,845.5V821l-.37-.47a499.54,499.54,0,0,1,797.83.11.77.77,0,0,0,0,.25l-.5,24.63A24.53,24.53,0,0,1,1193.5,870ZM820,670.5c-2.08,0-4.15,0-6.24,0l-6.12.12c-123.11,3.18-241,57.67-323.34,149.51l-.75.83h672.53l-.75-.83C1072.89,728.32,955,673.83,831.85,670.66c-2-.06-4-.09-5.93-.12h-.19C823.82,670.51,821.91,670.5,820,670.5Z" transform="translate(-420 -271)"/><path class="cls-1" d="M819.5,622A496.4,496.4,0,0,1,1110,715.3a503.05,503.05,0,0,1,75.25,66.4A497.61,497.61,0,0,1,1218,820.8l0,.13V821l-.5,24.52a24,24,0,0,1-24,24h-748a24,24,0,0,1-24-24V820.8l-.22-.28,0,0A497.72,497.72,0,0,1,819.5,622M482.43,821.5H1157.2l-1.5-1.67c-82.52-91.94-200.56-146.5-323.83-149.67-2-.06-4.13-.09-6.13-.12-1.75,0-3.57,0-5.74,0-2.36,0-4.35,0-6.24,0-2,0-4.09.07-6.14.12-123.24,3.18-241.23,57.74-323.69,149.67l-1.5,1.67M819.5,621C674.7,621,544.29,682.59,453,781a496.59,496.59,0,0,0-33,39.48c.16.22.33.44.5.65V845.5a25,25,0,0,0,25,25h748a25,25,0,0,0,25-25l.5-24.5c.17-.21-.16-.28,0-.5A496.59,496.59,0,0,0,1186,781C1094.71,682.59,964.3,621,819.5,621ZM484.67,820.5c79.87-89,194.76-146,323-149.34l6.12-.12c2.08,0,4.15,0,6.23,0,1.91,0,3.81,0,5.72,0s4.08.06,6.12.12c128.27,3.3,243.2,60.3,323.12,149.34Z" transform="translate(-420 -271)"/></svg>